<?xml version="1.0" encoding="UTF-8"?>
<svg xmlns="http://www.w3.org/2000/svg" id="Camada_1" data-name="Camada 1" viewBox="0 0 549.29 187.02">
  <defs>
    <style>
      .cls-1 {
        fill: #ec6739;
      }

      .cls-1, .cls-2 {
        stroke-width: 0px;
      }

      .cls-2 {
        fill: #579889;
      }
    </style>
  </defs>
  <path class="cls-2" d="M176.92,20.57c14.65.17,26.63,5.05,35.97,14.63,9.33,9.59,14,21.01,14.01,34.26l.04,100.43-40.02.02-.04-93.63c0-6.45-2.19-11.85-6.55-16.21-4.36-4.35-9.33-6.53-14.91-6.53-5.58,0-10.55,2.19-14.91,6.54-4.36,4.36-6.53,9.77-6.53,16.22l.04,93.63-40.02.02-.04-93.63c0-6.45-2.19-11.85-6.55-16.21-4.36-4.35-9.33-6.53-14.91-6.53-5.58,0-10.55,2.19-14.91,6.54-4.36,4.36-6.53,9.77-6.53,16.22l.04,93.63-40.02.02-.06-148.82,40.02-.02v12.03c2.27-2.62,6.5-5.36,12.69-8.24,6.19-2.88,13.03-4.23,20.53-4.06,18.31,0,31.3,6.09,38.98,18.29,8.71-12.91,23.27-19.1,43.67-18.59Z"></path>
  <path class="cls-2" d="M252.24,20.8l40.02-.02v12.29c4.01-3.83,9.72-7.11,17.13-9.82,7.41-2.7,16.87-3.54,28.38-2.5,16.39,1.74,29.34,7.66,38.85,17.77,9.51,10.11,14.26,24.58,14.27,43.41l.04,87.88-40.02.02-.04-89.19c0-4.36-1.18-8.67-3.54-12.95-2.36-4.27-5.63-7.71-9.81-10.33s-9.33-3.92-15.43-3.92c-7.15,0-12.86,1.31-17.13,3.93-4.27,2.62-7.45,6.06-9.54,10.34-2.09,4.28-3.14,8.59-3.13,12.95l.04,89.19-40.02.02-.06-149.08Z"></path>
  <path class="cls-1" d="M467.8,132.39l58.85-.02.02,37.4-118.48.05v-16.48s54.88-95.23,54.88-95.23l-49.96.02-.02-37.4,109.59-.05v16.48s-54.88,95.23-54.88,95.23Z"></path>
</svg>
